<svg xmlns="http://www.w3.org/2000/svg" width="1760" height="1260" viewBox="0 0 1760 1260" role="img" aria-label="JPULSE - Information Architecture tổng quan">
<defs><marker id="arrow" markerWidth="9" markerHeight="9" refX="7" refY="4.5" orient="auto"><path d="M0 0 L9 4.5 L0 9 Z" fill="#8B9BB0"/></marker></defs>
<rect x="0" y="0" width="1760" height="1260" rx="0" fill="#FAFBFE" stroke="none" stroke-width="1"/>
<text x="64" y="66" font-family="Arial, sans-serif" font-size="38" font-weight="700" fill="#15294B" text-anchor="start">JPULSE · Bản đồ chức năng</text>
<text x="65" y="99" font-family="Arial, sans-serif" font-size="17" font-weight="400" fill="#5A6A83" text-anchor="start">01 / Tổng quan  •  11 khu vực  •  Hình chữ nhật đậm = phân hệ; ô trắng = màn hình hoặc nhóm chức năng</text>
<path d="M64 119 L1696 119" fill="none" stroke="#DFE6EF" stroke-width="2"/>
<rect x="715" y="143" width="330" height="66" rx="15" fill="#15294B" stroke="none" stroke-width="1"/>
<text x="880" y="185" font-family="Arial, sans-serif" font-size="27" font-weight="700" fill="#FFFFFF" text-anchor="middle">JPULSE</text>
<rect x="48" y="240" width="1664" height="900" rx="18" fill="none" stroke="#D8E1ED" stroke-width="2"/>
<path d="M880 209 L880 240" fill="none" stroke="#8B9BB0" stroke-width="2"/>
<g id="module-A" data-level="2">
<rect x="64" y="272" width="390" height="48" rx="12" fill="#6851B5" stroke="none" stroke-width="1"/>
<text x="81" y="303" font-family="Arial, sans-serif" font-size="21" font-weight="700" fill="#FFFFFF" text-anchor="start">A  Truy cập và cá nhân</text>
<rect x="64" y="328" width="390" height="216" rx="11" fill="#FFFFFF" stroke="#DAE3ED" stroke-width="1"/>
<rect x="78" y="340" width="362" height="29" rx="6" fill="#F4F7FB" stroke="none" stroke-width="1"/>
<text x="88" y="360" font-family="Arial, sans-serif" font-size="17" font-weight="400" fill="#17253E" text-anchor="start">Đăng nhập</text>
<rect x="78" y="374" width="362" height="29" rx="6" fill="#F4F7FB" stroke="none" stroke-width="1"/>
<text x="88" y="394" font-family="Arial, sans-serif" font-size="17" font-weight="400" fill="#17253E" text-anchor="start">Hồ sơ cá nhân</text>
</g>
<g id="module-B" data-level="2">
<rect x="481" y="272" width="390" height="48" rx="12" fill="#6663CC" stroke="none" stroke-width="1"/>
<text x="498" y="303" font-family="Arial, sans-serif" font-size="21" font-weight="700" fill="#FFFFFF" text-anchor="start">B  Trang chủ</text>
<rect x="481" y="328" width="390" height="216" rx="11" fill="#FFFFFF" stroke="#DAE3ED" stroke-width="1"/>
<rect x="495" y="340" width="362" height="29" rx="6" fill="#F4F7FB" stroke="none" stroke-width="1"/>
<text x="505" y="360" font-family="Arial, sans-serif" font-size="17" font-weight="400" fill="#17253E" text-anchor="start">Trang chủ</text>
</g>
<g id="module-C" data-level="2">
<rect x="898" y="272" width="390" height="48" rx="12" fill="#188F75" stroke="none" stroke-width="1"/>
<text x="915" y="303" font-family="Arial, sans-serif" font-size="21" font-weight="700" fill="#FFFFFF" text-anchor="start">C  Kho hàng và sản phẩm</text>
<rect x="898" y="328" width="390" height="216" rx="11" fill="#FFFFFF" stroke="#DAE3ED" stroke-width="1"/>
<rect x="912" y="340" width="362" height="29" rx="6" fill="#F4F7FB" stroke="none" stroke-width="1"/>
<text x="922" y="360" font-family="Arial, sans-serif" font-size="17" font-weight="400" fill="#17253E" text-anchor="start">Kho hàng</text>
<rect x="912" y="374" width="362" height="29" rx="6" fill="#F4F7FB" stroke="none" stroke-width="1"/>
<text x="922" y="394" font-family="Arial, sans-serif" font-size="17" font-weight="400" fill="#17253E" text-anchor="start">Chi tiết kho / Tồn kho</text>
<rect x="912" y="408" width="362" height="29" rx="6" fill="#F4F7FB" stroke="none" stroke-width="1"/>
<text x="922" y="428" font-family="Arial, sans-serif" font-size="17" font-weight="400" fill="#17253E" text-anchor="start">Tổ chức</text>
<rect x="912" y="442" width="362" height="29" rx="6" fill="#F4F7FB" stroke="none" stroke-width="1"/>
<text x="922" y="462" font-family="Arial, sans-serif" font-size="17" font-weight="400" fill="#17253E" text-anchor="start">Sản phẩm</text>
<rect x="912" y="476" width="362" height="29" rx="6" fill="#F4F7FB" stroke="none" stroke-width="1"/>
<text x="922" y="496" font-family="Arial, sans-serif" font-size="17" font-weight="400" fill="#17253E" text-anchor="start">Danh mục</text>
</g>
<g id="module-D" data-level="2">
<rect x="1315" y="272" width="390" height="48" rx="12" fill="#1684A2" stroke="none" stroke-width="1"/>
<text x="1332" y="303" font-family="Arial, sans-serif" font-size="21" font-weight="700" fill="#FFFFFF" text-anchor="start">D  Chứng từ và kiểm kê</text>
<rect x="1315" y="328" width="390" height="216" rx="11" fill="#FFFFFF" stroke="#DAE3ED" stroke-width="1"/>
<rect x="1329" y="340" width="362" height="29" rx="6" fill="#F4F7FB" stroke="none" stroke-width="1"/>
<text x="1339" y="360" font-family="Arial, sans-serif" font-size="17" font-weight="400" fill="#17253E" text-anchor="start">Tạo lệnh / Quản lý lệnh</text>
<rect x="1329" y="374" width="362" height="29" rx="6" fill="#F4F7FB" stroke="none" stroke-width="1"/>
<text x="1339" y="394" font-family="Arial, sans-serif" font-size="17" font-weight="400" fill="#17253E" text-anchor="start">Việc cần xử lý</text>
<rect x="1329" y="408" width="362" height="29" rx="6" fill="#F4F7FB" stroke="none" stroke-width="1"/>
<text x="1339" y="428" font-family="Arial, sans-serif" font-size="17" font-weight="400" fill="#17253E" text-anchor="start">Quy trình</text>
<rect x="1329" y="442" width="362" height="29" rx="6" fill="#F4F7FB" stroke="none" stroke-width="1"/>
<text x="1339" y="462" font-family="Arial, sans-serif" font-size="17" font-weight="400" fill="#17253E" text-anchor="start">Phiên kiểm kê</text>
<rect x="1329" y="476" width="362" height="29" rx="6" fill="#F4F7FB" stroke="none" stroke-width="1"/>
<text x="1339" y="496" font-family="Arial, sans-serif" font-size="17" font-weight="400" fill="#17253E" text-anchor="start">Báo cáo không phù hợp</text>
<text x="1339" y="527" font-family="Arial, sans-serif" font-size="15" font-weight="600" fill="#1684A2" text-anchor="start">+ 1 nhóm khác  →  chi tiết D</text>
</g>
<g id="module-E" data-level="2">
<rect x="64" y="568" width="390" height="48" rx="12" fill="#CC8A23" stroke="none" stroke-width="1"/>
<text x="81" y="599" font-family="Arial, sans-serif" font-size="21" font-weight="700" fill="#FFFFFF" text-anchor="start">E  Chi phí và doanh thu</text>
<rect x="64" y="624" width="390" height="216" rx="11" fill="#FFFFFF" stroke="#DAE3ED" stroke-width="1"/>
<rect x="78" y="636" width="362" height="29" rx="6" fill="#F4F7FB" stroke="none" stroke-width="1"/>
<text x="88" y="656" font-family="Arial, sans-serif" font-size="17" font-weight="400" fill="#17253E" text-anchor="start">Nhập liệu chi phí</text>
<rect x="78" y="670" width="362" height="29" rx="6" fill="#F4F7FB" stroke="none" stroke-width="1"/>
<text x="88" y="690" font-family="Arial, sans-serif" font-size="17" font-weight="400" fill="#17253E" text-anchor="start">Báo cáo chi phí</text>
<rect x="78" y="704" width="362" height="29" rx="6" fill="#F4F7FB" stroke="none" stroke-width="1"/>
<text x="88" y="724" font-family="Arial, sans-serif" font-size="17" font-weight="400" fill="#17253E" text-anchor="start">Dashboard doanh thu</text>
<rect x="78" y="738" width="362" height="29" rx="6" fill="#F4F7FB" stroke="none" stroke-width="1"/>
<text x="88" y="758" font-family="Arial, sans-serif" font-size="17" font-weight="400" fill="#17253E" text-anchor="start">Báo cáo doanh thu</text>
<rect x="78" y="772" width="362" height="29" rx="6" fill="#F4F7FB" stroke="none" stroke-width="1"/>
<text x="88" y="792" font-family="Arial, sans-serif" font-size="17" font-weight="400" fill="#17253E" text-anchor="start">Mẫu báo cáo Excel</text>
</g>
<g id="module-F" data-level="2">
<rect x="481" y="568" width="390" height="48" rx="12" fill="#C16D39" stroke="none" stroke-width="1"/>
<text x="498" y="599" font-family="Arial, sans-serif" font-size="21" font-weight="700" fill="#FFFFFF" text-anchor="start">F  Hóa đơn điện tử</text>
<rect x="481" y="624" width="390" height="216" rx="11" fill="#FFFFFF" stroke="#DAE3ED" stroke-width="1"/>
<rect x="495" y="636" width="362" height="29" rx="6" fill="#F4F7FB" stroke="none" stroke-width="1"/>
<text x="505" y="656" font-family="Arial, sans-serif" font-size="17" font-weight="400" fill="#17253E" text-anchor="start">Cấu hình meInvoice</text>
<rect x="495" y="670" width="362" height="29" rx="6" fill="#F4F7FB" stroke="none" stroke-width="1"/>
<text x="505" y="690" font-family="Arial, sans-serif" font-size="17" font-weight="400" fill="#17253E" text-anchor="start">Đơn hàng nguồn</text>
<rect x="495" y="704" width="362" height="29" rx="6" fill="#F4F7FB" stroke="none" stroke-width="1"/>
<text x="505" y="724" font-family="Arial, sans-serif" font-size="17" font-weight="400" fill="#17253E" text-anchor="start">Chứng từ hóa đơn</text>
<rect x="495" y="738" width="362" height="29" rx="6" fill="#F4F7FB" stroke="none" stroke-width="1"/>
<text x="505" y="758" font-family="Arial, sans-serif" font-size="17" font-weight="400" fill="#17253E" text-anchor="start">Sổ hóa đơn</text>
<rect x="495" y="772" width="362" height="29" rx="6" fill="#F4F7FB" stroke="none" stroke-width="1"/>
<text x="505" y="792" font-family="Arial, sans-serif" font-size="17" font-weight="400" fill="#17253E" text-anchor="start">Case đối soát</text>
</g>
<g id="module-G" data-level="2">
<rect x="898" y="568" width="390" height="48" rx="12" fill="#B85D86" stroke="none" stroke-width="1"/>
<text x="915" y="599" font-family="Arial, sans-serif" font-size="21" font-weight="700" fill="#FFFFFF" text-anchor="start">G  Nhân sự</text>
<rect x="898" y="624" width="390" height="216" rx="11" fill="#FFFFFF" stroke="#DAE3ED" stroke-width="1"/>
<rect x="912" y="636" width="362" height="29" rx="6" fill="#F4F7FB" stroke="none" stroke-width="1"/>
<text x="922" y="656" font-family="Arial, sans-serif" font-size="17" font-weight="400" fill="#17253E" text-anchor="start">Hồ sơ nhân viên</text>
<rect x="912" y="670" width="362" height="29" rx="6" fill="#F4F7FB" stroke="none" stroke-width="1"/>
<text x="922" y="690" font-family="Arial, sans-serif" font-size="17" font-weight="400" fill="#17253E" text-anchor="start">Hợp đồng</text>
<rect x="912" y="704" width="362" height="29" rx="6" fill="#F4F7FB" stroke="none" stroke-width="1"/>
<text x="922" y="724" font-family="Arial, sans-serif" font-size="17" font-weight="400" fill="#17253E" text-anchor="start">Chấm công</text>
<rect x="912" y="738" width="362" height="29" rx="6" fill="#F4F7FB" stroke="none" stroke-width="1"/>
<text x="922" y="758" font-family="Arial, sans-serif" font-size="17" font-weight="400" fill="#17253E" text-anchor="start">Cấu hình chấm công</text>
<rect x="912" y="772" width="362" height="29" rx="6" fill="#F4F7FB" stroke="none" stroke-width="1"/>
<text x="922" y="792" font-family="Arial, sans-serif" font-size="17" font-weight="400" fill="#17253E" text-anchor="start">Đơn nghỉ</text>
<text x="922" y="823" font-family="Arial, sans-serif" font-size="15" font-weight="600" fill="#B85D86" text-anchor="start">+ 1 nhóm khác  →  chi tiết G</text>
</g>
<g id="module-H" data-level="2">
<rect x="1315" y="568" width="390" height="48" rx="12" fill="#3A83B5" stroke="none" stroke-width="1"/>
<text x="1332" y="599" font-family="Arial, sans-serif" font-size="21" font-weight="700" fill="#FFFFFF" text-anchor="start">H  Tài liệu và thông báo</text>
<rect x="1315" y="624" width="390" height="216" rx="11" fill="#FFFFFF" stroke="#DAE3ED" stroke-width="1"/>
<rect x="1329" y="636" width="362" height="29" rx="6" fill="#F4F7FB" stroke="none" stroke-width="1"/>
<text x="1339" y="656" font-family="Arial, sans-serif" font-size="17" font-weight="400" fill="#17253E" text-anchor="start">Thư viện tệp</text>
<rect x="1329" y="670" width="362" height="29" rx="6" fill="#F4F7FB" stroke="none" stroke-width="1"/>
<text x="1339" y="690" font-family="Arial, sans-serif" font-size="17" font-weight="400" fill="#17253E" text-anchor="start">Tài liệu quy trình và biểu mẫu</text>
<rect x="1329" y="704" width="362" height="29" rx="6" fill="#F4F7FB" stroke="none" stroke-width="1"/>
<text x="1339" y="724" font-family="Arial, sans-serif" font-size="17" font-weight="400" fill="#17253E" text-anchor="start">Thông báo</text>
<rect x="1329" y="738" width="362" height="29" rx="6" fill="#F4F7FB" stroke="none" stroke-width="1"/>
<text x="1339" y="758" font-family="Arial, sans-serif" font-size="17" font-weight="400" fill="#17253E" text-anchor="start">Thông báo đẩy</text>
</g>
<g id="module-I" data-level="2">
<rect x="64" y="864" width="390" height="48" rx="12" fill="#546B8D" stroke="none" stroke-width="1"/>
<text x="81" y="895" font-family="Arial, sans-serif" font-size="21" font-weight="700" fill="#FFFFFF" text-anchor="start">I  Quản trị hệ thống</text>
<rect x="64" y="920" width="390" height="216" rx="11" fill="#FFFFFF" stroke="#DAE3ED" stroke-width="1"/>
<rect x="78" y="932" width="362" height="29" rx="6" fill="#F4F7FB" stroke="none" stroke-width="1"/>
<text x="88" y="952" font-family="Arial, sans-serif" font-size="17" font-weight="400" fill="#17253E" text-anchor="start">Người dùng</text>
<rect x="78" y="966" width="362" height="29" rx="6" fill="#F4F7FB" stroke="none" stroke-width="1"/>
<text x="88" y="986" font-family="Arial, sans-serif" font-size="17" font-weight="400" fill="#17253E" text-anchor="start">Vai trò và quyền</text>
<rect x="78" y="1000" width="362" height="29" rx="6" fill="#F4F7FB" stroke="none" stroke-width="1"/>
<text x="88" y="1020" font-family="Arial, sans-serif" font-size="17" font-weight="400" fill="#17253E" text-anchor="start">Audit log</text>
<rect x="78" y="1034" width="362" height="29" rx="6" fill="#F4F7FB" stroke="none" stroke-width="1"/>
<text x="88" y="1054" font-family="Arial, sans-serif" font-size="17" font-weight="400" fill="#17253E" text-anchor="start">Cấu hình Open API</text>
</g>
<g id="module-J" data-level="2">
<rect x="481" y="864" width="390" height="48" rx="12" fill="#BF6074" stroke="none" stroke-width="1"/>
<text x="498" y="895" font-family="Arial, sans-serif" font-size="21" font-weight="700" fill="#FFFFFF" text-anchor="start">J  Voucher marketing</text>
<rect x="481" y="920" width="390" height="216" rx="11" fill="#FFFFFF" stroke="#DAE3ED" stroke-width="1"/>
<rect x="495" y="932" width="362" height="29" rx="6" fill="#F4F7FB" stroke="none" stroke-width="1"/>
<text x="505" y="952" font-family="Arial, sans-serif" font-size="17" font-weight="400" fill="#17253E" text-anchor="start">Chiến dịch voucher</text>
<rect x="495" y="966" width="362" height="29" rx="6" fill="#F4F7FB" stroke="none" stroke-width="1"/>
<text x="505" y="986" font-family="Arial, sans-serif" font-size="17" font-weight="400" fill="#17253E" text-anchor="start">Mã voucher</text>
<rect x="495" y="1000" width="362" height="29" rx="6" fill="#F4F7FB" stroke="none" stroke-width="1"/>
<text x="505" y="1020" font-family="Arial, sans-serif" font-size="17" font-weight="400" fill="#17253E" text-anchor="start">Phân phối voucher</text>
<rect x="495" y="1034" width="362" height="29" rx="6" fill="#F4F7FB" stroke="none" stroke-width="1"/>
<text x="505" y="1054" font-family="Arial, sans-serif" font-size="17" font-weight="400" fill="#17253E" text-anchor="start">Tác vụ nền</text>
<text x="496" y="1137" font-family="Arial, sans-serif" font-size="13" font-weight="600" fill="#BF6074" text-anchor="start">* Chỉ khi bật feature flag</text>
</g>
<g id="module-K" data-level="2">
<rect x="898" y="864" width="390" height="48" rx="12" fill="#5B76A0" stroke="none" stroke-width="1"/>
<text x="915" y="895" font-family="Arial, sans-serif" font-size="21" font-weight="700" fill="#FFFFFF" text-anchor="start">K  Quản trị POS</text>
<rect x="898" y="920" width="390" height="216" rx="11" fill="#FFFFFF" stroke="#DAE3ED" stroke-width="1"/>
<rect x="912" y="932" width="362" height="29" rx="6" fill="#F4F7FB" stroke="none" stroke-width="1"/>
<text x="922" y="952" font-family="Arial, sans-serif" font-size="17" font-weight="400" fill="#17253E" text-anchor="start">Thiết bị POS</text>
<rect x="912" y="966" width="362" height="29" rx="6" fill="#F4F7FB" stroke="none" stroke-width="1"/>
<text x="922" y="986" font-family="Arial, sans-serif" font-size="17" font-weight="400" fill="#17253E" text-anchor="start">Cấu hình POS</text>
</g>
<text x="64" y="1194" font-family="Arial, sans-serif" font-size="16" font-weight="400" fill="#4D5E77" text-anchor="start">Ranh giới: JPOS vận hành bán hàng riêng; K là chức năng quản trị POS trong JPULSE.</text>
<text x="64" y="1222" font-family="Arial, sans-serif" font-size="15" font-weight="400" fill="#667791" text-anchor="start">Nguồn: SRS-JPULSE chương 3–4; HƯỚNG DẪN SỬ DỤNG HỆ THỐNG §2–16. Mã A–K dùng thống nhất trong các trang chi tiết.</text>
</svg>